<svg width="16" height="16" viewBox="0 0 16 16" fill="none" xmlns="http://www.w3.org/2000/svg">
<path d="M14.25 2.5H1.75C0.785062 2.5 0 3.28506 0 4.25V11.75C0 12.7149 0.785062 13.5 1.75 13.5H14.25C15.2149 13.5 16 12.7149 16 11.75V4.25C16 3.28506 15.2149 2.5 14.25 2.5ZM1.75 3.5H14.25C14.6635 3.5 15 3.83647 15 4.25V5.25H1V4.25C1 3.83647 1.33647 3.5 1.75 3.5ZM14.25 12.5H1.75C1.33647 12.5 1 12.1635 1 11.75V6.25H15V11.75C15 12.1635 14.6635 12.5 14.25 12.5Z" fill="#4295E4"/>
<path d="M3.5 11H3C2.72387 11 2.5 10.7761 2.5 10.5V10C2.5 9.72387 2.72387 9.5 3 9.5H3.5C3.77612 9.5 4 9.72387 4 10V10.5C4 10.7761 3.77612 11 3.5 11Z" fill="#4295E4"/>
</svg>
