<svg width="70" height="13" viewBox="0 0 70 13" fill="none" xmlns="http://www.w3.org/2000/svg">
<path fill-rule="evenodd" clip-rule="evenodd" d="M0 12.7281V0.640711H5.0924V12.7281H3.66187V2.39452H1.43612V12.7281H0ZM8.96427 0.369223C8.12928 0.369223 7.47248 0.942838 6.99387 2.09007C6.51497 3.24816 6.27552 4.76616 6.27552 6.64331C6.27552 8.58638 6.50702 10.1315 6.97002 11.2788C7.42506 12.4264 8.08981 13 8.96397 13C9.85433 13 10.5509 12.3988 11.0534 11.1965C11.532 10.0493 11.7714 8.52627 11.7714 6.62663C11.7714 4.74949 11.524 3.23691 11.0295 2.09007C10.535 0.942838 9.84668 0.369223 8.96427 0.369223ZM7.64066 6.65998C7.64066 5.33125 7.75346 4.25266 7.97907 3.42385C8.19673 2.58961 8.52513 2.17229 8.96427 2.17229C9.45083 2.17229 9.80309 2.59504 10.0207 3.44053C10.2145 4.1813 10.3114 5.24359 10.3114 6.62663C10.3114 7.9608 10.1986 9.05567 9.97303 9.91202C9.74772 10.7684 9.41136 11.1965 8.96427 11.1965C8.53279 11.1965 8.20439 10.7629 7.97907 9.89573C7.75346 9.02852 7.64066 7.94955 7.64066 6.6596V6.65998ZM16.0648 0.640711H17.5012V12.7281H16.0648V6.77478H14.765C14.1477 6.77478 13.6255 6.51144 13.1981 5.98476C12.7593 5.46893 12.5396 4.82085 12.5396 4.04168V0.640711H13.9639V3.81091C13.9639 4.13476 14.0352 4.39267 14.1774 4.58465C14.3753 4.84295 14.6722 4.97172 15.0678 4.97172H16.0648V0.640711ZM21.1952 12.7281H19.7646V2.42749H18.3995V0.640711H22.5721V2.42749H21.1952V12.7281ZM23.678 0.640711H25.9989C26.6834 0.640711 27.2233 0.857902 27.6188 1.29112C28.1136 1.83487 28.361 2.69122 28.361 3.86017L29.1027 12.7281H27.6665L27.2153 6.70885H24.966L24.8117 12.7281H23.3755L23.6783 0.640711H23.678ZM24.9899 4.93875H27.0492C26.982 4.00561 26.8672 3.36335 26.7052 3.01196C26.5111 2.61132 26.1868 2.41081 25.7318 2.41081H25.0432L24.9899 4.93875ZM34.259 12.5156V0.428175H35.8792C36.9633 0.428175 37.7447 1.05105 38.2236 2.29756C38.5323 3.09302 38.6866 4.01569 38.6866 5.06364C38.6866 6.56807 38.4966 7.70948 38.1167 8.48904C37.7845 9.15884 37.363 9.49354 36.8526 9.49354C36.445 9.49354 36.075 9.28217 35.7428 8.85981V12.5156H34.259ZM35.731 2.07494V5.8048C35.731 6.38656 35.8002 6.83684 35.9387 7.15525C36.0691 7.46824 36.2314 7.62454 36.4252 7.62454C36.627 7.62454 36.801 7.44769 36.9474 7.0932C37.0938 6.73949 37.1671 6.23607 37.1671 5.58257C37.1671 4.3694 37.0535 3.47892 36.8258 2.91035C36.5984 2.34255 36.283 2.05865 35.8792 2.05865C35.8301 2.06768 35.7806 2.07311 35.731 2.07494ZM42.1076 0.156299C41.2726 0.156299 40.6158 0.730302 40.1372 1.87714C39.6583 3.03562 39.4188 4.55324 39.4188 6.43038C39.4188 8.37385 39.6503 9.919 40.1133 11.0662C40.5684 12.2135 41.2331 12.7871 42.1073 12.7871C42.9976 12.7871 43.6939 12.1859 44.1967 10.9836C44.6753 9.83678 44.9147 8.31334 44.9147 6.41409C44.9147 4.53695 44.6673 3.02437 44.1728 1.87714C43.678 0.729914 42.9897 0.156299 42.1076 0.156299ZM40.784 6.44706C40.784 5.11871 40.8968 4.04013 41.1221 3.21131C41.34 2.37668 41.6681 1.95975 42.1076 1.95975C42.5941 1.95975 42.9464 2.3825 43.1637 3.22799C43.3578 3.96876 43.4547 5.03106 43.4547 6.41409C43.4547 7.74826 43.3419 8.84313 43.1163 9.69948C42.8907 10.5558 42.5547 10.984 42.1076 10.984C41.6761 10.984 41.3477 10.5504 41.1221 9.68319C40.8968 8.8156 40.784 7.73701 40.784 6.44706ZM47.3384 6.51299C47.3384 7.79209 47.6055 8.8377 48.1395 9.65023C48.7135 10.5174 49.5185 10.951 50.5552 10.951V12.8864C49.0478 12.8864 47.8647 12.2794 47.0062 11.0662C46.1874 9.90814 45.7777 8.39595 45.7777 6.52928C45.7777 4.59706 46.1556 3.07945 46.9113 1.97604C47.7381 0.762881 48.945 0.156299 50.5317 0.156299V2.09162C49.4714 2.09162 48.662 2.51941 48.1042 3.37576C47.5937 4.14989 47.3384 5.1955 47.3384 6.51299ZM52.9197 6.51299C52.9197 7.79209 53.1868 8.8377 53.7208 9.65023C54.2949 10.5174 55.0998 10.951 56.1365 10.951V12.8864C54.6292 12.8864 53.446 12.2794 52.5875 11.0662C51.7684 9.90814 51.359 8.39595 51.359 6.52928C51.359 4.59706 51.7369 3.07945 52.4923 1.97604C53.3194 0.762881 54.5261 0.156299 56.1127 0.156299V2.09162C55.0524 2.09162 54.2433 2.51941 53.6855 3.37576C53.1751 4.14989 52.9197 5.1955 52.9197 6.51299ZM62.549 0L62.9231 12.5156H61.4628L61.2195 4.30618L58.7685 7.54232L58.7802 12.5156H57.3203V0.428175H58.7802V4.89105L62.549 0ZM69.626 0L70 12.5156H68.5397L68.2964 4.30618L65.8454 7.54232L65.8572 12.5156H64.3972V0.428175H65.8572V4.89105L69.6257 0H69.626Z" fill="white"/>
</svg>
