<svg width="24" height="24" viewBox="0 0 24 24" fill="none" xmlns="http://www.w3.org/2000/svg">
<path d="M17.2293 4.80005H5.8676C4.617 4.80005 3.59961 5.81747 3.59961 7.06804V14.7362C3.59961 15.9868 4.617 17.0042 5.8676 17.0042H6.75759L6.77501 19.0064C6.77656 19.1909 6.88253 19.3586 7.04853 19.4393C7.116 19.4721 7.18863 19.4882 7.26091 19.4882C7.36645 19.4882 7.47121 19.4539 7.5579 19.3869L10.6451 17.0042H17.2293C18.4799 17.0042 19.4972 15.9868 19.4972 14.7362V7.06804C19.4972 5.81747 18.4799 4.80005 17.2293 4.80005ZM18.5253 14.7362C18.5253 15.4509 17.9439 16.0322 17.2293 16.0322H10.4793C10.3719 16.0322 10.2675 16.0678 10.1824 16.1335L7.73843 18.0198L7.72533 16.514C7.72303 16.2473 7.50611 16.0322 7.23936 16.0322H5.8676C5.15298 16.0322 4.5716 15.4509 4.5716 14.7362V7.06804C4.5716 6.35342 5.15298 5.77204 5.8676 5.77204H17.2293C17.9439 5.77204 18.5253 6.35342 18.5253 7.06804V14.7362H18.5253Z" fill="#C4CDD5"/>
</svg>
