<svg width="69" height="82" viewBox="0 0 69 82" fill="none" xmlns="http://www.w3.org/2000/svg">
<path opacity="0.8" fill-rule="evenodd" clip-rule="evenodd" d="M67.3894 2.92857C68.1999 2.92857 68.857 2.27299 68.857 1.46429C68.857 0.655583 68.1999 0 67.3894 0C66.5788 0 65.9217 0.655583 65.9217 1.46429C65.9217 2.27299 66.5788 2.92857 67.3894 2.92857ZM67.3894 16.1071C68.1999 16.1071 68.857 15.4515 68.857 14.6428C68.857 13.8341 68.1999 13.1786 67.3894 13.1786C66.5788 13.1786 65.9217 13.8341 65.9217 14.6428C65.9217 15.4515 66.5788 16.1071 67.3894 16.1071ZM67.3894 29.2857C68.1999 29.2857 68.857 28.6301 68.857 27.8214C68.857 27.0127 68.1999 26.3571 67.3894 26.3571C66.5788 26.3571 65.9217 27.0127 65.9217 27.8214C65.9217 28.6301 66.5788 29.2857 67.3894 29.2857ZM67.3894 42.4643C68.1999 42.4643 68.857 41.8087 68.857 41C68.857 40.1913 68.1999 39.5357 67.3894 39.5357C66.5788 39.5357 65.9217 40.1913 65.9217 41C65.9217 41.8087 66.5788 42.4643 67.3894 42.4643ZM67.3894 55.6428C68.1999 55.6428 68.857 54.9873 68.857 54.1786C68.857 53.3699 68.1999 52.7143 67.3894 52.7143C66.5788 52.7143 65.9217 53.3699 65.9217 54.1786C65.9217 54.9873 66.5788 55.6428 67.3894 55.6428ZM67.3894 68.8215C68.1999 68.8215 68.857 68.1659 68.857 67.3572C68.857 66.5485 68.1999 65.8929 67.3894 65.8929C66.5788 65.8929 65.9217 66.5485 65.9217 67.3572C65.9217 68.1659 66.5788 68.8215 67.3894 68.8215ZM2.93529 80.5357C2.93529 81.3444 2.2782 82 1.46764 82C0.657086 82 0 81.3444 0 80.5357C0 79.727 0.657086 79.0714 1.46764 79.0714C2.2782 79.0714 2.93529 79.727 2.93529 80.5357ZM14.6473 82C15.4579 82 16.115 81.3444 16.115 80.5357C16.115 79.727 15.4579 79.0714 14.6473 79.0714C13.8368 79.0714 13.1797 79.727 13.1797 80.5357C13.1797 81.3444 13.8368 82 14.6473 82ZM29.3064 80.5357C29.3064 81.3444 28.6493 82 27.8387 82C27.0282 82 26.3711 81.3444 26.3711 80.5357C26.3711 79.727 27.0282 79.0714 27.8387 79.0714C28.6493 79.0714 29.3064 79.727 29.3064 80.5357ZM41.0193 82C41.8298 82 42.4869 81.3444 42.4869 80.5357C42.4869 79.727 41.8298 79.0714 41.0193 79.0714C40.2087 79.0714 39.5516 79.727 39.5516 80.5357C39.5516 81.3444 40.2087 82 41.0193 82ZM55.6736 80.5357C55.6736 81.3444 55.0165 82 54.2059 82C53.3954 82 52.7383 81.3444 52.7383 80.5357C52.7383 79.727 53.3954 79.0714 54.2059 79.0714C55.0165 79.0714 55.6736 79.727 55.6736 80.5357ZM68.857 80.5357C68.857 81.3444 68.1999 82 67.3894 82C66.5788 82 65.9217 81.3444 65.9217 80.5357C65.9217 79.727 66.5788 79.0714 67.3894 79.0714C68.1999 79.0714 68.857 79.727 68.857 80.5357ZM55.6736 67.3572C55.6736 68.1659 55.0165 68.8215 54.2059 68.8215C53.3954 68.8215 52.7383 68.1659 52.7383 67.3572C52.7383 66.5485 53.3954 65.8929 54.2059 65.8929C55.0165 65.8929 55.6736 66.5485 55.6736 67.3572ZM41.0193 68.8215C41.8298 68.8215 42.4869 68.1659 42.4869 67.3572C42.4869 66.5485 41.8298 65.8929 41.0193 65.8929C40.2087 65.8929 39.5516 66.5485 39.5516 67.3572C39.5516 68.1659 40.2087 68.8215 41.0193 68.8215ZM29.3064 67.3572C29.3064 68.1659 28.6493 68.8215 27.8387 68.8215C27.0282 68.8215 26.3711 68.1659 26.3711 67.3572C26.3711 66.5485 27.0282 65.8929 27.8387 65.8929C28.6493 65.8929 29.3064 66.5485 29.3064 67.3572ZM14.6473 68.8215C15.4579 68.8215 16.115 68.1659 16.115 67.3572C16.115 66.5485 15.4579 65.8929 14.6473 65.8929C13.8368 65.8929 13.1797 66.5485 13.1797 67.3572C13.1797 68.1659 13.8368 68.8215 14.6473 68.8215ZM2.93529 67.3572C2.93529 68.1659 2.2782 68.8215 1.46764 68.8215C0.657086 68.8215 0 68.1659 0 67.3572C0 66.5485 0.657086 65.8929 1.46764 65.8929C2.2782 65.8929 2.93529 66.5485 2.93529 67.3572ZM55.6736 54.1786C55.6736 54.9873 55.0165 55.6428 54.2059 55.6428C53.3954 55.6428 52.7383 54.9873 52.7383 54.1786C52.7383 53.3699 53.3954 52.7143 54.2059 52.7143C55.0165 52.7143 55.6736 53.3699 55.6736 54.1786ZM41.0193 55.6428C41.8298 55.6428 42.4869 54.9873 42.4869 54.1786C42.4869 53.3699 41.8298 52.7143 41.0193 52.7143C40.2087 52.7143 39.5516 53.3699 39.5516 54.1786C39.5516 54.9873 40.2087 55.6428 41.0193 55.6428ZM29.3064 54.1786C29.3064 54.9873 28.6493 55.6428 27.8387 55.6428C27.0282 55.6428 26.3711 54.9873 26.3711 54.1786C26.3711 53.3699 27.0282 52.7143 27.8387 52.7143C28.6493 52.7143 29.3064 53.3699 29.3064 54.1786ZM14.6473 55.6428C15.4579 55.6428 16.115 54.9873 16.115 54.1786C16.115 53.3699 15.4579 52.7143 14.6473 52.7143C13.8368 52.7143 13.1797 53.3699 13.1797 54.1786C13.1797 54.9873 13.8368 55.6428 14.6473 55.6428ZM2.93529 54.1786C2.93529 54.9873 2.2782 55.6428 1.46764 55.6428C0.657086 55.6428 0 54.9873 0 54.1786C0 53.3699 0.657086 52.7143 1.46764 52.7143C2.2782 52.7143 2.93529 53.3699 2.93529 54.1786ZM55.6736 41C55.6736 41.8087 55.0165 42.4643 54.2059 42.4643C53.3954 42.4643 52.7383 41.8087 52.7383 41C52.7383 40.1913 53.3954 39.5357 54.2059 39.5357C55.0165 39.5357 55.6736 40.1913 55.6736 41ZM41.0193 42.4643C41.8298 42.4643 42.4869 41.8087 42.4869 41C42.4869 40.1913 41.8298 39.5357 41.0193 39.5357C40.2087 39.5357 39.5516 40.1913 39.5516 41C39.5516 41.8087 40.2087 42.4643 41.0193 42.4643ZM29.3064 41C29.3064 41.8087 28.6493 42.4643 27.8387 42.4643C27.0282 42.4643 26.3711 41.8087 26.3711 41C26.3711 40.1913 27.0282 39.5357 27.8387 39.5357C28.6493 39.5357 29.3064 40.1913 29.3064 41ZM14.6473 42.4643C15.4579 42.4643 16.115 41.8087 16.115 41C16.115 40.1913 15.4579 39.5357 14.6473 39.5357C13.8368 39.5357 13.1797 40.1913 13.1797 41C13.1797 41.8087 13.8368 42.4643 14.6473 42.4643ZM2.93529 41C2.93529 41.8087 2.2782 42.4643 1.46764 42.4643C0.657086 42.4643 0 41.8087 0 41C0 40.1913 0.657086 39.5357 1.46764 39.5357C2.2782 39.5357 2.93529 40.1913 2.93529 41ZM55.6736 27.8214C55.6736 28.6301 55.0165 29.2857 54.2059 29.2857C53.3954 29.2857 52.7383 28.6301 52.7383 27.8214C52.7383 27.0127 53.3954 26.3571 54.2059 26.3571C55.0165 26.3571 55.6736 27.0127 55.6736 27.8214ZM41.0193 29.2857C41.8298 29.2857 42.4869 28.6301 42.4869 27.8214C42.4869 27.0127 41.8298 26.3571 41.0193 26.3571C40.2087 26.3571 39.5516 27.0127 39.5516 27.8214C39.5516 28.6301 40.2087 29.2857 41.0193 29.2857ZM29.3064 27.8214C29.3064 28.6301 28.6493 29.2857 27.8387 29.2857C27.0282 29.2857 26.3711 28.6301 26.3711 27.8214C26.3711 27.0127 27.0282 26.3571 27.8387 26.3571C28.6493 26.3571 29.3064 27.0127 29.3064 27.8214ZM14.6473 29.2857C15.4579 29.2857 16.115 28.6301 16.115 27.8214C16.115 27.0127 15.4579 26.3571 14.6473 26.3571C13.8368 26.3571 13.1797 27.0127 13.1797 27.8214C13.1797 28.6301 13.8368 29.2857 14.6473 29.2857ZM2.93529 27.8214C2.93529 28.6301 2.2782 29.2857 1.46764 29.2857C0.657086 29.2857 0 28.6301 0 27.8214C0 27.0127 0.657086 26.3571 1.46764 26.3571C2.2782 26.3571 2.93529 27.0127 2.93529 27.8214ZM55.6736 14.6428C55.6736 15.4515 55.0165 16.1071 54.2059 16.1071C53.3954 16.1071 52.7383 15.4515 52.7383 14.6428C52.7383 13.8341 53.3954 13.1786 54.2059 13.1786C55.0165 13.1786 55.6736 13.8341 55.6736 14.6428ZM41.0193 16.1071C41.8298 16.1071 42.4869 15.4515 42.4869 14.6428C42.4869 13.8341 41.8298 13.1786 41.0193 13.1786C40.2087 13.1786 39.5516 13.8341 39.5516 14.6428C39.5516 15.4515 40.2087 16.1071 41.0193 16.1071ZM29.3064 14.6428C29.3064 15.4515 28.6493 16.1071 27.8387 16.1071C27.0282 16.1071 26.3711 15.4515 26.3711 14.6428C26.3711 13.8341 27.0282 13.1786 27.8387 13.1786C28.6493 13.1786 29.3064 13.8341 29.3064 14.6428ZM14.6473 16.1071C15.4579 16.1071 16.115 15.4515 16.115 14.6428C16.115 13.8341 15.4579 13.1786 14.6473 13.1786C13.8368 13.1786 13.1797 13.8341 13.1797 14.6428C13.1797 15.4515 13.8368 16.1071 14.6473 16.1071ZM2.93529 14.6428C2.93529 15.4515 2.2782 16.1071 1.46764 16.1071C0.657086 16.1071 0 15.4515 0 14.6428C0 13.8341 0.657086 13.1786 1.46764 13.1786C2.2782 13.1786 2.93529 13.8341 2.93529 14.6428ZM55.6736 1.46429C55.6736 2.27299 55.0165 2.92857 54.2059 2.92857C53.3954 2.92857 52.7383 2.27299 52.7383 1.46429C52.7383 0.655583 53.3954 0 54.2059 0C55.0165 0 55.6736 0.655583 55.6736 1.46429ZM41.0193 2.92857C41.8298 2.92857 42.4869 2.27299 42.4869 1.46429C42.4869 0.655583 41.8298 0 41.0193 0C40.2087 0 39.5516 0.655583 39.5516 1.46429C39.5516 2.27299 40.2087 2.92857 41.0193 2.92857ZM29.3064 1.46429C29.3064 2.27299 28.6493 2.92857 27.8387 2.92857C27.0282 2.92857 26.3711 2.27299 26.3711 1.46429C26.3711 0.655583 27.0282 0 27.8387 0C28.6493 0 29.3064 0.655583 29.3064 1.46429ZM14.6473 2.92857C15.4579 2.92857 16.115 2.27299 16.115 1.46429C16.115 0.655583 15.4579 0 14.6473 0C13.8368 0 13.1797 0.655583 13.1797 1.46429C13.1797 2.27299 13.8368 2.92857 14.6473 2.92857ZM2.93529 1.46429C2.93529 2.27299 2.2782 2.92857 1.46764 2.92857C0.657086 2.92857 0 2.27299 0 1.46429C0 0.655583 0.657086 0 1.46764 0C2.2782 0 2.93529 0.655583 2.93529 1.46429Z" fill="#7282A0"/>
</svg>
