<svg width="24" height="24" viewBox="0 0 24 24" fill="none" xmlns="http://www.w3.org/2000/svg">
<g clip-path="url(#clip0_326_8465)">
<path d="M0.00381851 16.6461C0.00381851 16.6487 0.00353527 16.6513 0.00353527 16.6539C0.00353527 19.8092 2.56134 22.367 5.71664 22.367C8.87193 22.367 11.4297 19.8092 11.4297 16.6539C11.4297 13.4985 8.87165 10.9408 5.71659 10.9408C5.06813 10.9408 4.44739 11.0538 3.86658 11.253C5.15193 3.8793 10.902 -0.875978 5.57175 3.03771C-0.338765 7.37756 -0.00279427 16.4796 0.00381851 16.6461Z" fill="#4295E4"/>
<path d="M18.2869 10.9408C17.6384 10.9408 17.0177 11.0539 16.4366 11.253C17.7223 3.87934 23.4724 -0.875931 18.142 3.03776C12.2315 7.37756 12.5674 16.4796 12.5741 16.6461C12.5741 16.6487 12.5738 16.6513 12.5738 16.6539C12.5738 19.8092 15.1316 22.367 18.2869 22.367C21.4422 22.367 24 19.8092 24 16.6539C24 13.4985 21.442 10.9408 18.2869 10.9408Z" fill="#4295E4"/>
</g>
<defs>
<clipPath id="clip0_326_8465">
<rect width="24" height="24" fill="white" transform="translate(24 24) rotate(-180)"/>
</clipPath>
</defs>
</svg>
