<svg width="24" height="24" viewBox="0 0 24 24" xmlns="http://www.w3.org/2000/svg">
<path d="M19.734 16.06C18.888 17.7705 17.5158 19.1647 15.819 20.038C14.1344 20.903 12.2136 21.195 10.348 20.87C8.47659 20.541 6.76206 19.6148 5.461 18.23C4.14787 16.8321 3.31181 15.0539 3.073 13.151C2.83045 11.2437 3.19579 9.30854 4.117 7.62098C5.02975 5.94634 6.45609 4.60904 8.186 3.80598C9.90431 3.01014 11.8354 2.79667 13.686 3.19798C15.536 3.59898 17.052 4.51098 18.306 5.95298C18.457 6.11298 19.041 6.75898 19.526 7.73398" stroke-linecap="round" stroke-linejoin="round"/>
<path d="M15.0684 7.81309L20.1084 8.72009L20.9994 3.59009" stroke-linecap="round" stroke-linejoin="round"/>
</svg>
