<svg width="92" height="92" viewBox="0 0 92 92" xmlns="http://www.w3.org/2000/svg">
<g clip-path="url(#clip0_245_6660)">
<path d="M12.8393 52.629C12.8393 28.4074 32.4821 8.76457 56.7037 8.76457C62.5294 8.76206 68.2975 9.91801 73.6719 12.1672C65.8577 5.80071 56.0843 2.33117 46.005 2.34538C21.7835 2.34538 2.14062 21.9883 2.14062 46.2098C2.14313 63.8818 12.7431 79.8295 29.0368 86.6724C18.7787 78.3492 12.8259 65.8393 12.8393 52.629Z"/>
<path d="M46.0054 0.205637C27.3982 0.202294 10.6222 11.41 3.50174 28.6013C-3.61787 45.7927 0.320571 65.5802 13.4816 78.7337C31.4444 96.6965 60.5673 96.6965 78.5293 78.7337C96.4922 60.7717 96.4922 31.6488 78.5293 13.6859C69.9228 5.03006 58.2119 0.176383 46.0054 0.205637ZM46.0054 87.9345C23.0034 87.9345 4.28074 69.2119 4.28074 46.2098C4.28074 23.2077 23.0034 4.48509 46.0054 4.48509C69.0075 4.48509 87.7301 23.2077 87.7301 46.2098C87.7301 69.2119 69.0075 87.9345 46.0054 87.9345Z"/>
<path d="M67.874 32.0667L40.2506 58.4707L25.2081 43.4073C24.3748 42.574 23.0241 42.574 22.1908 43.4073C21.3583 44.2398 21.3583 45.5905 22.1908 46.4238L38.731 62.9641C39.1322 63.3686 39.6805 63.5926 40.2506 63.5843C40.8031 63.5901 41.3347 63.3745 41.7267 62.9858L70.827 35.1694C71.6712 34.3511 71.6987 33.0054 70.8888 32.1537C70.0781 31.3028 68.7332 31.2635 67.874 32.0667Z"/>
</g>
<defs>
<clipPath>
<rect width="92" height="92"/>
</clipPath>
</defs>
</svg>
