<svg width="24" height="24" viewBox="0 0 24 24" fill="none" xmlns="http://www.w3.org/2000/svg">
<path d="M6.33333 6C6.14924 6 6 6.14926 6 6.33337V13.3342C6 14.0707 6.59695 14.6677 7.33333 14.6677H15.78L13.48 16.9613C13.4169 17.0239 13.3814 17.1091 13.3814 17.198C13.3814 17.2869 13.4169 17.3721 13.48 17.4347L13.9533 17.9014C14.0159 17.9645 14.1011 18 14.19 18C14.2789 18 14.3641 17.9645 14.4267 17.9014L17.8533 14.481C17.9471 14.3873 17.9999 14.2602 18 14.1276V13.8743C17.9985 13.742 17.9459 13.6154 17.8533 13.5209L14.4267 10.1005C14.3641 10.0374 14.2789 10.0019 14.19 10.0019C14.1011 10.0019 14.0159 10.0374 13.9533 10.1005L13.48 10.5739C13.4173 10.6353 13.382 10.7194 13.382 10.8072C13.382 10.895 13.4173 10.9791 13.48 11.0406L15.78 13.3342H7.33333V6.33337C7.33333 6.14926 7.18409 6 7 6H6.33333Z" fill="#4295E4"/>
</svg>
