<svg width="104" height="25" viewBox="0 0 104 25" fill="none" xmlns="http://www.w3.org/2000/svg">
<g clip-path="url(#clip0_194_6218)">
<path d="M6.6014 12.2057C6.97439 11.8773 7.16088 11.4389 7.16088 10.8907V10.854C7.16088 10.2453 6.96525 9.78858 6.57398 9.48387C6.18272 9.17915 5.63797 9.02697 4.93974 9.02734H2.13281V12.7018H4.9968C5.69355 12.6999 6.22841 12.5346 6.6014 12.2057Z" fill="#454F5B"/>
<path d="M19.8124 19.2735V14.1404H14.5991V19.2735H11.7715V6.48593H14.5991V11.5466H19.8124V6.48593H22.0296C20.9465 4.52142 19.3526 2.88271 17.4149 1.74125C15.4771 0.599794 13.2667 -0.00244141 11.0148 -0.00244141C8.76298 -0.00244141 6.55253 0.599794 4.61477 1.74125C2.67701 2.88271 1.08316 4.52142 0 6.48593H5.29159C6.91931 6.48593 8.1677 6.91832 9.03676 7.78311C9.77081 8.51429 10.1378 9.48875 10.1378 10.7065V10.7427C10.1378 11.7782 9.88401 12.6217 9.37637 13.273C8.86244 13.9289 8.17193 14.426 7.38517 14.7066L10.5244 19.2718H7.21733L4.46355 15.1798H2.24464V19.2718H0.461014C1.59875 21.0281 3.16099 22.4725 5.00474 23.4726C6.8485 24.4728 8.91489 24.9969 11.0148 24.9969C13.1147 24.9969 15.1811 24.4728 17.0249 23.4726C18.8686 22.4725 20.4309 21.0281 21.5686 19.2718L19.8124 19.2735Z" fill="#454F5B"/>
<path d="M103.831 14.3179H28.3984V14.6068H103.831V14.3179Z" fill="#454F5B"/>
<path d="M43.085 3.68234L44.6733 7.51655H41.5095L43.085 3.68234ZM42.2071 1.03564L37.6289 11.9648H39.7124L40.7609 9.39997H45.423L46.4559 11.9648H48.5981L44.0199 1.03564H42.2071Z" fill="#454F5B"/>
<path d="M57.029 6.55369C57.029 8.63642 55.6538 10.0355 53.6078 10.0355H51.7145V3.04016H53.6078C55.6219 3.04016 57.029 4.48487 57.029 6.55369ZM53.6078 1.11108H49.6914V11.9673H53.6078C56.8114 11.9673 59.1366 9.67862 59.1366 6.52529C59.1366 3.38923 56.8114 1.11387 53.6078 1.11387" fill="#454F5B"/>
<path d="M91.0417 6.55267C91.0417 8.63317 89.6144 10.2026 87.7223 10.2026C85.8127 10.2026 84.3732 8.62092 84.3732 6.5226C84.3732 4.4421 85.8004 2.87323 87.6932 2.87323C89.6021 2.87323 91.0417 4.45546 91.0417 6.55267ZM87.7223 0.929688C84.6121 0.929688 82.2656 3.34757 82.2656 6.55267C82.2656 9.74218 84.5992 12.1467 87.6926 12.1467C90.8033 12.1467 93.1487 9.72882 93.1487 6.52372C93.1487 3.33476 90.8162 0.930243 87.7217 0.930243" fill="#454F5B"/>
<path d="M34.9069 4.70151C34.9069 5.73536 34.1482 6.37783 32.9263 6.37783H30.4221V3.04022H32.9123C34.1991 3.04022 34.9069 3.6298 34.9069 4.70151ZM36.9568 4.59462C36.9568 2.44619 35.463 1.1106 33.0578 1.1106H28.4023V11.9669H30.4221V8.26125H32.4866L34.9902 11.9646H37.3792L34.5941 7.89158C36.1193 7.3972 36.9568 6.23141 36.9568 4.59518" fill="#454F5B"/>
<path d="M62.8328 1.11108H60.8125V11.9646H62.8328V1.11108Z" fill="#454F5B"/>
<path d="M69.0325 5.57731C67.0558 5.0846 66.7039 4.73609 66.7039 4.00287C66.7039 3.30919 67.3238 2.84265 68.2481 2.84265C69.136 2.84265 70.0177 3.19283 70.942 3.91101L71.0394 3.98673L72.127 2.38891L72.0481 2.3221C70.9526 1.40517 69.719 0.959229 68.2772 0.959229C66.1607 0.959229 64.6831 2.27979 64.6831 4.17045C64.6831 6.19639 65.9587 6.91346 68.1619 7.46852C70.0547 7.92449 70.3747 8.30863 70.3747 8.99675C70.3747 9.75947 69.7268 10.2327 68.6845 10.2327C67.5331 10.2327 66.5943 9.82851 65.5452 8.88206L65.4552 8.79967L64.2344 10.3129L64.3127 10.3852C65.529 11.5176 67.0251 12.1167 68.6403 12.1167C70.9207 12.1167 72.3944 10.8206 72.3944 8.81414C72.3944 7.12057 71.4204 6.18303 69.0325 5.57731Z" fill="#454F5B"/>
<path d="M77.8411 5.57731C75.8644 5.0846 75.5125 4.73609 75.5125 4.00287C75.5125 3.30919 76.133 2.84265 77.0561 2.84265C77.9446 2.84265 78.8258 3.19283 79.7506 3.91101L79.8474 3.98673L80.9356 2.38891L80.8567 2.3221C79.7612 1.40517 78.5281 0.959229 77.0852 0.959229C74.9693 0.959229 73.4917 2.27979 73.4917 4.17045C73.4917 6.19639 74.7673 6.91346 76.9705 7.46852C78.8633 7.92449 79.1827 8.30863 79.1827 8.99675C79.1827 9.75947 78.5354 10.2327 77.4931 10.2327C76.3428 10.2327 75.4034 9.82851 74.3538 8.88206L74.2638 8.79967L73.043 10.3129L73.1213 10.3852C74.3365 11.5176 75.8337 12.1167 77.4489 12.1167C79.7299 12.1167 81.203 10.8206 81.203 8.81414C81.203 7.12057 80.229 6.18303 77.8411 5.57731Z" fill="#454F5B"/>
<path d="M101.843 1.11182V8.22461L96.5936 1.15803L96.5589 1.11182H94.7266V11.9653H96.7172V4.63982L102.127 11.9185L102.162 11.9653H103.834V1.11182H101.843Z" fill="#454F5B"/>
<path d="M103.83 14.3091H28.4062V14.5975H103.83V14.3091Z" fill="#454F5B"/>
<path d="M28.3555 16.9023H29.6121V19.8608H33.0249V16.9023H34.2815V24.0196H33.0249V21.0183H29.6121V24.0179H28.3555V16.9023Z" fill="#454F5B"/>
<path d="M41.9062 20.481V20.4615C41.9062 18.4573 43.4594 16.781 45.6548 16.781C47.8502 16.781 49.3843 18.4384 49.3843 20.4409V20.4615C49.3843 22.4658 47.8312 24.1421 45.6358 24.1421C43.4403 24.1421 41.9062 22.4841 41.9062 20.481ZM48.0673 20.481V20.4615C48.0673 19.0786 47.0557 17.9401 45.6358 17.9401C44.2158 17.9401 43.2244 19.0586 43.2244 20.4409V20.4615C43.2244 21.8445 44.2359 22.983 45.6559 22.983C47.0759 22.983 48.065 21.8639 48.065 20.481H48.0673Z" fill="#454F5B"/>
<path d="M58.9149 18.0615H56.6367V16.9023H62.4503V18.0615H60.1715V24.0185H58.9149V18.0615Z" fill="#454F5B"/>
<path d="M71.0167 16.9023H76.3195V18.0208H72.2733V19.8714H75.8596V20.9999H72.2733V22.9011H76.3699V24.0196H71.0156L71.0167 16.9023Z" fill="#454F5B"/>
<path d="M85.7695 16.9023H87.0261V22.8805H90.7864V24.0196H85.7695V16.9023Z" fill="#454F5B"/>
<path d="M98.4609 22.9825L99.2174 22.0878C99.9016 22.6774 100.596 23.0131 101.475 23.0131C102.251 23.0131 102.742 22.6468 102.742 22.1184V22.0978C102.742 21.5895 102.456 21.3151 101.128 21.01C99.6056 20.6442 98.7468 20.1966 98.7468 18.8849V18.8649C98.7468 17.6445 99.769 16.8005 101.189 16.8005C102.231 16.8005 103.059 17.1162 103.784 17.6958L103.11 18.6422C102.466 18.1645 101.823 17.9101 101.169 17.9101C100.433 17.9101 100.004 18.2865 100.004 18.7541V18.7741C100.004 19.3231 100.331 19.5675 101.71 19.8926C103.22 20.2589 103.999 20.7973 103.999 21.977V21.9971C103.999 23.3293 102.946 24.1221 101.445 24.1221C100.342 24.127 99.2772 23.7204 98.4609 22.9825Z" fill="#454F5B"/>
</g>
<defs>
<clipPath id="clip0_194_6218">
<rect width="104" height="25" fill="white"/>
</clipPath>
</defs>
</svg>
