<?xml version="1.0" encoding="utf-8"?><svg viewBox="0 0 502.66 502.66" xmlns="http://www.w3.org/2000/svg" xmlns:xlink="http://www.w3.org/1999/xlink"><style>:root>svg{display:none}:root>svg:target{display:block}</style><svg viewBox="0 0 32 32" id="Frame" xmlns="http://www.w3.org/2000/svg"><path d="M10.75 5C7.575 5 5 7.61 5 10.829c0 2.599 1.006 8.767 10.911 15.002a1.113 1.113 0 001.178 0C26.994 19.596 28 13.428 28 10.829 28 7.609 25.425 5 22.25 5S16.5 8.533 16.5 8.533 13.925 5 10.75 5z"/></svg><svg fill="none" viewBox="0 0 18 18" id="arrow-bottom" xmlns="http://www.w3.org/2000/svg"><path d="M15 6l-6 6-6-6" stroke="currentColor" stroke-linecap="round" stroke-linejoin="round"/></svg><svg fill="none" viewBox="0 0 32 32" id="arrow-left" xmlns="http://www.w3.org/2000/svg"><path d="M21.332 26.667L10.665 16 21.332 5.333" stroke="currentColor" stroke-linecap="round" stroke-linejoin="round"/></svg><svg fill="none" viewBox="0 0 32 32" id="arrow-right" xmlns="http://www.w3.org/2000/svg"><path d="M10.668 5.333L21.335 16 10.668 26.667" stroke="currentColor" stroke-linecap="round" stroke-linejoin="round"/></svg><svg fill="none" viewBox="0 0 18 18" id="arrow-top" xmlns="http://www.w3.org/2000/svg"><path d="M3 12l6-6 6 6" stroke-linecap="round" stroke="currentColor" stroke-linejoin="round"/></svg><svg fill="none" viewBox="0 0 32 32" id="cart" xmlns="http://www.w3.org/2000/svg"><path d="M6.667 9.333h18.386a2.667 2.667 0 012.653 2.932l-.8 8a2.667 2.667 0 01-2.653 2.402H11.52a2.667 2.667 0 01-2.616-2.144L6.667 9.333zm0 0L5.587 5.01A1.333 1.333 0 004.293 4H2.666m8 24h2.667m8.001 0H24"/></svg><svg fill="none" viewBox="0 0 20 20" id="check" xmlns="http://www.w3.org/2000/svg"><path d="M6 10l3 3 5-6" stroke="currentColor" stroke-width="2" stroke-linecap="round" stroke-linejoin="round"/></svg><svg fill="none" viewBox="0 0 20 20" id="check-white" xmlns="http://www.w3.org/2000/svg"><path d="M6 10l3 3 5-6" stroke="#fff" stroke-width="2" stroke-linecap="round" stroke-linejoin="round"/></svg><svg viewBox="0 0 10 10" id="close" xmlns="http://www.w3.org/2000/svg"><path d="M9 1L1 9m8 0L1 1l8 8z"/></svg><svg fill="none" viewBox="0 0 24 24" id="comment" xmlns="http://www.w3.org/2000/svg"><path d="M17.23 4.8H5.867A2.27 2.27 0 003.6 7.068v7.668a2.27 2.27 0 002.268 2.268h.89l.017 2.002a.486.486 0 00.783.38l3.087-2.382h6.584a2.27 2.27 0 002.268-2.268V7.068A2.27 2.27 0 0017.23 4.8zm1.295 9.936c0 .715-.581 1.296-1.296 1.296h-6.75a.486.486 0 00-.297.102L7.738 18.02l-.013-1.506a.486.486 0 00-.486-.482H5.868a1.297 1.297 0 01-1.296-1.296V7.068c0-.715.581-1.296 1.296-1.296h11.361c.715 0 1.296.581 1.296 1.296v7.668z" fill="#C4CDD5"/></svg><svg viewBox="0 0 24 24" id="delete" xmlns="http://www.w3.org/2000/svg"><path d="M4 6h16l-1.58 14.22A2 2 0 0116.432 22H7.568a2 2 0 01-1.988-1.78L4 6zm3.345-2.853A2 2 0 019.154 2h5.692a2 2 0 011.81 1.147L18 6H6l1.345-2.853zM2 6h20m-12 5v5m4-5v5"/></svg><svg viewBox="0 0 26 26" id="facebook" xmlns="http://www.w3.org/2000/svg"><g clip-path="url(#ala)"><path d="M17.33 4.317h2.374V.183C19.294.127 17.886 0 16.246 0c-3.422 0-5.767 2.153-5.767 6.109V9.75H6.703v4.621h3.776V26h4.63V14.373h3.624l.575-4.622h-4.2V6.567c.001-1.336.361-2.25 2.222-2.25z"/></g><defs><clipPath id="ala"><path d="M0 0h26v26H0z"/></clipPath></defs></svg><svg viewBox="0 0 12 12" id="gift" xmlns="http://www.w3.org/2000/svg"><path d="M11 4.5H1a.25.25 0 00-.25.25v7c0 .138.112.25.25.25h10a.25.25 0 00.25-.25v-7A.25.25 0 0011 4.5zm-.25 7h-9.5V5h9.5v6.5z"/><path d="M11.5 2.5H.5a.25.25 0 00-.25.25v2c0 .138.112.25.25.25h11a.25.25 0 00.25-.25v-2a.25.25 0 00-.25-.25zm-.25 2H.75V3h10.5v1.5z"/><path d="M6 2.5a.25.25 0 00-.25.25v9a.25.25 0 00.5 0v-9A.25.25 0 006 2.5z"/><path d="M6.255 2.691C6 1.485 4.465.192 3.444.019a1.001 1.001 0 00-.967 1.615l.004.006c.743.949 3.215 1.312 3.495 1.35a.25.25 0 00.279-.3zM2.868 1.323A.492.492 0 012.75 1a.5.5 0 01.605-.49c.75.128 1.881 1.035 2.287 1.92-.87-.161-2.34-.536-2.773-1.107z"/><path d="M8.75 0a.985.985 0 00-.187.018C7.535.192 6.002 1.485 5.745 2.69a.25.25 0 00.278.3c.28-.039 2.752-.402 3.495-1.35l.005-.007A1.001 1.001 0 008.75 0zm.396 1.305l-.015.018c-.432.571-1.902.946-2.773 1.107.407-.886 1.54-1.793 2.295-1.92a.5.5 0 01.493.796z"/></svg><svg viewBox="0 0 20 20" id="home" xmlns="http://www.w3.org/2000/svg"><path d="M16.31 8.133h-.002l-5.44-5.44a1.219 1.219 0 00-.867-.36 1.22 1.22 0 00-.868.36L3.696 8.129a1.229 1.229 0 00.85 2.099h.216v4.003c0 .793.645 1.437 1.437 1.437h2.128a.39.39 0 00.39-.39v-3.139c0-.361.295-.655.656-.655h1.255c.362 0 .656.293.656.655v3.138a.39.39 0 00.39.391h2.129c.792 0 1.436-.644 1.436-1.437v-4.003h.201a1.23 1.23 0 00.869-2.095zm-.554 1.183a.443.443 0 01-.316.131h-.591a.39.39 0 00-.39.39v4.394a.656.656 0 01-.656.656h-1.738v-2.748c0-.792-.644-1.437-1.437-1.437H9.373a1.44 1.44 0 00-1.437 1.437v2.748H6.2a.656.656 0 01-.656-.656V9.838a.39.39 0 00-.39-.39H4.57l-.018-.002a.447.447 0 01-.307-.761l5.44-5.44a.443.443 0 01.63 0l5.438 5.438.003.003a.447.447 0 01-.001.63z"/><path d="M15.756 9.316a.443.443 0 01-.316.131h-.591a.39.39 0 00-.39.39v4.394a.656.656 0 01-.656.656h-1.738v-2.748c0-.792-.644-1.437-1.437-1.437H9.373a1.44 1.44 0 00-1.437 1.437v2.748H6.2a.656.656 0 01-.656-.656V9.838a.39.39 0 00-.39-.39H4.57l-.018-.002a.447.447 0 01-.307-.761l5.44-5.44a.443.443 0 01.63 0l5.438 5.438.003.003a.447.447 0 01-.001.63z"/></svg><svg viewBox="0 0 502.664 502.664" id="icon" xmlns="http://www.w3.org/2000/svg"><path d="M153.821 358.226L0 274.337v-46.463l153.821-83.414v54.574L46.636 250.523l107.185 53.431v54.272zm26.273 29.358L282.103 115.08h32.227L212.084 387.584h-31.99zm168.749-29.358v-54.272l107.164-52.999-107.164-52.59v-53.927l153.821 83.522v46.183l-153.821 84.083z" fill="#010002"/></svg><svg viewBox="0 0 32 32" id="like" xmlns="http://www.w3.org/2000/svg"><path d="M10.75 5C7.575 5 5 7.61 5 10.829c0 2.599 1.006 8.767 10.911 15.002a1.113 1.113 0 001.178 0C26.994 19.596 28 13.428 28 10.829 28 7.609 25.425 5 22.25 5S16.5 8.533 16.5 8.533 13.925 5 10.75 5z"/></svg><svg fill="none" viewBox="0 0 51 42" id="logo" xmlns="http://www.w3.org/2000/svg"><path d="M18.345 13.072H22.4v8.3c-2.275 2.552-5.538 3.828-9.79 3.828-3.594 0-6.594-1.193-9-3.579C1.203 19.235 0 16.253 0 12.675c0-3.58 1.22-6.578 3.66-8.997C6.131 1.226 9.114 0 12.61 0c3.494 0 6.395 1.01 8.702 3.032l-2.176 3.131c-1.68-1.425-3.741-2.137-6.18-2.137-2.473 0-4.55.812-6.231 2.436-1.648 1.59-2.472 3.661-2.472 6.213 0 2.551.79 4.622 2.373 6.213 1.615 1.557 3.61 2.336 5.983 2.336 2.308 0 4.22-.497 5.736-1.491v-6.66z" fill="currentColor"/><path stroke="currentColor" d="M27.1 0v16.8"/><path stroke="#4295E4" d="M27.1 16.8v16.8"/><path d="M41.42 42c-3.933 0-7.473-1.225-10.62-3.675l2.491-4.003c2.797 2.144 5.55 3.215 8.26 3.215 1.136 0 2.032-.262 2.687-.787.7-.569 1.05-1.269 1.05-2.1 0-1.225-1.618-2.319-4.852-3.281a2.536 2.536 0 00-.327-.131.503.503 0 00-.197-.066c-5.07-1.356-7.604-3.653-7.604-6.89 0-2.276.852-4.091 2.556-5.448 1.749-1.356 4.043-2.034 6.883-2.034 2.797 0 5.463.831 7.998 2.494L47.844 23.1a11.446 11.446 0 00-6.49-1.969c-2.753 0-4.13.875-4.13 2.625 0 .744.263 1.29.787 1.64.568.307 1.486.613 2.753.92 1.923.525 3.54 1.05 4.851 1.575.874.393 1.639.809 2.294 1.247 1.661 1.137 2.491 2.865 2.491 5.184 0 2.275-.852 4.134-2.556 5.578-1.66 1.4-3.802 2.1-6.424 2.1z" fill="#4295E4"/></svg><svg viewBox="0 0 24 24" id="menu" xmlns="http://www.w3.org/2000/svg"><path d="M23 12.98H1a1 1 0 010-2h22a1 1 0 010 2zm0-7.667H1a1 1 0 010-2h22a1 1 0 010 2zm0 15.333H1a1 1 0 010-2h22a1 1 0 010 2z"/></svg><svg viewBox="0 0 16 17" id="minus" xmlns="http://www.w3.org/2000/svg"><path d="M13.333 8.5H2.666"/></svg><svg viewBox="0 0 24 24" id="more-fill" xmlns="http://www.w3.org/2000/svg"><path d="M19.734 16.06a8.923 8.923 0 01-3.915 3.978 8.706 8.706 0 01-5.471.832 8.795 8.795 0 01-4.887-2.64 9.067 9.067 0 01-2.388-5.079 9.136 9.136 0 011.044-5.53 8.904 8.904 0 014.069-3.815 8.7 8.7 0 015.5-.608c1.85.401 3.366 1.313 4.62 2.755.151.16.735.806 1.22 1.781"/><path d="M15.068 7.813l5.04.907L21 3.59"/></svg><svg viewBox="0 0 92 92" id="nf-ok" xmlns="http://www.w3.org/2000/svg"><g clip-path="url(#clip0_245_6660)"><path d="M12.84 52.629c0-24.222 19.642-43.864 43.864-43.864a43.903 43.903 0 0116.968 3.402 43.703 43.703 0 00-27.667-9.822c-24.222 0-43.864 19.643-43.864 43.865a43.893 43.893 0 0026.896 40.462A43.783 43.783 0 0112.839 52.63z"/><path d="M46.005.206a45.996 45.996 0 00-32.523 78.528c17.962 17.963 47.085 17.963 65.047 0 17.963-17.962 17.963-47.085 0-65.048A45.71 45.71 0 0046.005.206zm0 87.729c-23.002 0-41.724-18.723-41.724-41.725 0-23.002 18.722-41.725 41.724-41.725 23.002 0 41.725 18.723 41.725 41.725 0 23.002-18.723 41.724-41.725 41.724z"/><path d="M67.874 32.067L40.251 58.47 25.208 43.407a2.133 2.133 0 00-3.017 3.017l16.54 16.54c.401.405.95.629 1.52.62a2.066 2.066 0 001.476-.598l29.1-27.817a2.143 2.143 0 00-2.953-3.103z"/></g></svg><svg fill="none" viewBox="0 0 20 22" id="no" xmlns="http://www.w3.org/2000/svg"><path fill="#fff" d="M0 0h20v22H0z"/><path d="M14 7l-8 8m8 0L6 7l8 8z" stroke="#E44286" stroke-linecap="round" stroke-linejoin="round"/></svg><svg fill="none" viewBox="0 0 92 92" id="ok" xmlns="http://www.w3.org/2000/svg"><g clip-path="url(#awa)"><path d="M12.84 52.629c0-24.222 19.642-43.864 43.864-43.864a43.903 43.903 0 0116.968 3.402 43.703 43.703 0 00-27.667-9.822c-24.222 0-43.864 19.643-43.864 43.865a43.893 43.893 0 0026.896 40.462A43.783 43.783 0 0112.839 52.63z"/><path d="M46.005.206a45.996 45.996 0 00-32.523 78.528c17.962 17.963 47.085 17.963 65.047 0 17.963-17.962 17.963-47.085 0-65.048A45.71 45.71 0 0046.005.206zm0 87.729c-23.002 0-41.724-18.723-41.724-41.725 0-23.002 18.722-41.725 41.724-41.725 23.002 0 41.725 18.723 41.725 41.725 0 23.002-18.723 41.724-41.725 41.724z"/><path d="M67.874 32.067L40.251 58.47 25.208 43.407a2.133 2.133 0 00-3.017 3.017l16.54 16.54c.401.405.95.629 1.52.62a2.066 2.066 0 001.476-.598l29.1-27.817a2.143 2.143 0 00-2.953-3.103z"/></g><defs><clipPath id="awa"><path d="M0 0h92v92H0z"/></clipPath></defs></svg><svg viewBox="0 0 20 20" id="phone" xmlns="http://www.w3.org/2000/svg"><path d="M18.772 14.125c-.051-.04-3.772-2.723-4.793-2.53-.488.086-.766.419-1.326 1.084-.09.108-.306.365-.474.548a8.562 8.562 0 01-5.403-5.402c.184-.169.441-.385.551-.478.663-.556.996-.835 1.082-1.323.177-1.013-2.503-4.759-2.53-4.793A1.43 1.43 0 004.812.625C3.726.625.625 4.648.625 5.325c0 .04.057 4.042 4.992 9.063 5.016 4.93 9.018 4.987 9.057 4.987.678 0 4.701-3.101 4.701-4.188a1.427 1.427 0 00-.603-1.062z"/></svg><svg viewBox="0 0 24 24" id="plus" xmlns="http://www.w3.org/2000/svg"><path d="M12 12H4m8 8v-8 8zm0-8V4v8zm0 0h8-8z"/></svg><svg viewBox="0 0 104 25" id="project1" xmlns="http://www.w3.org/2000/svg"><g clip-path="url(#clip0_194_6218)"><path d="M6.601 12.206c.373-.329.56-.767.56-1.315v-.037c0-.609-.196-1.065-.587-1.37-.391-.305-.936-.457-1.634-.457H2.133v3.675h2.864c.697-.002 1.231-.167 1.604-.496z"/><path d="M19.812 19.273V14.14H14.6v5.133h-2.828V6.486H14.6v5.06h5.213v-5.06h2.218a12.53 12.53 0 00-4.615-4.745 12.611 12.611 0 00-12.8 0A12.53 12.53 0 000 6.486h5.292c1.627 0 2.876.432 3.745 1.297.734.731 1.1 1.706 1.1 2.923v.037c0 1.035-.253 1.879-.76 2.53a4.412 4.412 0 01-1.992 1.434l3.14 4.565H7.216L4.464 15.18h-2.22v4.092H.462c1.138 1.756 2.7 3.2 4.544 4.2a12.605 12.605 0 0012.02 0c1.844-1 3.406-2.444 4.544-4.2l-1.757.002zm84.019-4.955H28.398v.289h75.433v-.29zM43.085 3.682l1.588 3.835H41.51l1.575-3.835zm-.878-2.646L37.63 11.965h2.083L40.761 9.4h4.662l1.033 2.565h2.142L44.02 1.035h-1.813zm14.822 5.518c0 2.082-1.375 3.482-3.421 3.482h-1.893V3.04h1.893c2.014 0 3.421 1.445 3.421 3.514zM53.608 1.11H49.69v10.856h3.917c3.203 0 5.529-2.288 5.529-5.442 0-3.136-2.326-5.411-5.53-5.411m37.436 5.44c0 2.08-1.428 3.65-3.32 3.65-1.91 0-3.349-1.582-3.349-3.68 0-2.08 1.427-3.65 3.32-3.65 1.91 0 3.349 1.582 3.349 3.68zM87.722.93c-3.11 0-5.456 2.418-5.456 5.623 0 3.19 2.333 5.594 5.427 5.594 3.11 0 5.456-2.418 5.456-5.623 0-3.19-2.333-5.594-5.427-5.594M34.907 4.702c0 1.033-.759 1.676-1.98 1.676h-2.505V3.04h2.49c1.287 0 1.995.59 1.995 1.662zm2.05-.107c0-2.149-1.494-3.484-3.9-3.484h-4.655v10.856h2.02V8.26h2.065l2.503 3.704h2.39l-2.786-4.073c1.525-.495 2.363-1.66 2.363-3.297m25.876-3.483h-2.02v10.854h2.02V1.11zm6.199 4.466c-1.976-.492-2.328-.84-2.328-1.574 0-.694.62-1.16 1.544-1.16.888 0 1.77.35 2.694 1.068l.097.076 1.088-1.598-.079-.067C70.953 1.405 69.72.96 68.278.96c-2.117 0-3.595 1.32-3.595 3.211 0 2.026 1.276 2.743 3.479 3.299 1.893.455 2.213.84 2.213 1.528 0 .762-.648 1.236-1.69 1.236-1.152 0-2.09-.404-3.14-1.35l-.09-.083-1.22 1.513.078.072c1.216 1.133 2.712 1.732 4.327 1.732 2.28 0 3.754-1.296 3.754-3.303 0-1.693-.974-2.631-3.362-3.237zm8.809 0c-1.977-.492-2.328-.84-2.328-1.574 0-.694.62-1.16 1.543-1.16.889 0 1.77.35 2.695 1.068l.096.076 1.089-1.598-.08-.067C79.762 1.405 78.529.96 77.087.96c-2.117 0-3.594 1.32-3.594 3.211 0 2.026 1.275 2.743 3.478 3.299 1.893.455 2.213.84 2.213 1.528 0 .762-.648 1.236-1.69 1.236-1.15 0-2.09-.404-3.14-1.35l-.09-.083-1.22 1.513.078.072c1.216 1.133 2.713 1.732 4.328 1.732 2.28 0 3.754-1.296 3.754-3.303 0-1.693-.974-2.631-3.362-3.237zm24.002-4.465v7.113l-5.25-7.067-.034-.046h-1.832v10.853h1.99V4.64l5.41 7.279.035.046h1.672V1.112h-1.991z"/><path d="M103.83 14.31H28.406v.287h75.424v-.288zm-75.475 2.592h1.257v2.959h3.413v-2.959h1.257v7.118h-1.257v-3.002h-3.413v3h-1.256v-7.116zm13.551 3.579v-.02c0-2.004 1.553-3.68 3.749-3.68 2.195 0 3.73 1.657 3.73 3.66v.02c0 2.005-1.554 3.681-3.75 3.681-2.195 0-3.729-1.658-3.729-3.661zm6.161 0v-.02c0-1.382-1.011-2.52-2.431-2.52-1.42 0-2.412 1.118-2.412 2.5v.02c0 1.384 1.012 2.522 2.432 2.522s2.409-1.12 2.409-2.502h.002zm10.848-2.42h-2.278v-1.159h5.813v1.16h-2.279v5.956h-1.256v-5.957zm12.102-1.159h5.303v1.119h-4.047v1.85h3.587V21h-3.587v1.9h4.097v1.119h-5.354v-7.118zm14.753 0h1.256v5.979h3.76v1.139H85.77v-7.118zm12.69 6.081l.757-.895c.685.59 1.379.925 2.258.925.776 0 1.267-.366 1.267-.895v-.02c0-.508-.286-.783-1.614-1.088-1.522-.366-2.381-.813-2.381-2.125v-.02c0-1.22 1.022-2.064 2.442-2.064 1.042 0 1.87.315 2.595.895l-.674.946c-.644-.477-1.287-.732-1.941-.732-.736 0-1.165.377-1.165.844v.02c0 .55.327.793 1.706 1.119 1.51.366 2.289.904 2.289 2.084v.02c0 1.332-1.053 2.125-2.554 2.125a4.421 4.421 0 01-2.984-1.14z"/></g></svg><svg fill="none" viewBox="0 0 24 24" id="reply" xmlns="http://www.w3.org/2000/svg"><path d="M6.333 6A.333.333 0 006 6.333v7.001c0 .737.597 1.334 1.333 1.334h8.447l-2.3 2.293a.333.333 0 000 .474l.473.466a.333.333 0 00.474 0l3.426-3.42a.5.5 0 00.147-.353v-.254a.513.513 0 00-.147-.353l-3.426-3.42a.333.333 0 00-.474 0l-.473.473a.326.326 0 000 .467l2.3 2.293H7.333v-7A.333.333 0 007 6h-.667z" fill="#4295E4"/></svg><svg viewBox="0 0 16 17" id="star" xmlns="http://www.w3.org/2000/svg"><path d="M7.383 2.255c.213-.562 1.02-.562 1.234 0l1.38 3.823a.66.66 0 00.618.422h3.391c.627 0 .9.78.407 1.162L12 9.833a.645.645 0 00-.215.728l.882 3.736c.214.6-.48 1.115-1.006.746l-3.278-2.08a.667.667 0 00-.766 0l-3.278 2.08c-.525.369-1.22-.147-1.006-.746l.882-3.736A.645.645 0 004 9.833L1.587 7.662C1.093 7.28 1.368 6.5 1.993 6.5h3.392a.66.66 0 00.617-.422l1.38-3.823z"/></svg><svg viewBox="0 0 26 26" id="twitter" xmlns="http://www.w3.org/2000/svg"><path d="M25.613 5.348c-.904.401-1.876.672-2.898.794a5.06 5.06 0 002.22-2.792 10.076 10.076 0 01-3.205 1.224 5.048 5.048 0 00-8.6 4.604A14.332 14.332 0 012.728 3.904a5.044 5.044 0 00-.683 2.537 5.048 5.048 0 002.245 4.202 5.035 5.035 0 01-2.286-.632v.065a5.048 5.048 0 004.049 4.949 5.082 5.082 0 01-2.28.086 5.05 5.05 0 004.715 3.504 10.126 10.126 0 01-6.268 2.161c-.403 0-.805-.023-1.205-.07a14.272 14.272 0 007.735 2.267c9.284 0 14.36-7.69 14.36-14.358 0-.217-.006-.436-.015-.653a10.258 10.258 0 002.516-2.61l.002-.004z"/></svg><svg viewBox="0 0 26 26" id="vk" xmlns="http://www.w3.org/2000/svg"><g clip-path="url(#bda)"><path fill-rule="evenodd" clip-rule="evenodd" d="M25.404 6.444c.18-.592 0-1.027-.861-1.027h-2.844c-.724 0-1.057.376-1.238.79 0 0-1.446 3.463-3.495 5.712-.663.652-.964.859-1.326.859-.18 0-.453-.207-.453-.8V6.445c0-.71-.2-1.027-.801-1.027H9.914c-.452 0-.724.33-.724.642 0 .673 1.025.829 1.13 2.723v4.114c0 .902-.166 1.066-.528 1.066-.964 0-3.31-3.479-4.701-7.459-.27-.774-.543-1.086-1.27-1.086H.975c-.813 0-.975.376-.975.79 0 .74.964 4.41 4.49 9.264 2.351 3.315 5.66 5.112 8.676 5.112 1.808 0 2.031-.398 2.031-1.086V16.99c0-.798.171-.958.744-.958.423 0 1.145.208 2.833 1.806 1.928 1.895 2.246 2.744 3.331 2.744h2.844c.813 0 1.22-.398.986-1.187-.258-.784-1.179-1.923-2.4-3.274-.663-.769-1.657-1.598-1.96-2.013-.42-.531-.3-.769 0-1.242 0 0 3.467-4.795 3.828-6.423h.001z"/></g><defs><clipPath id="bda"><path d="M0 0h26v26H0z"/></clipPath></defs></svg></svg>