<svg width="16" height="16" viewBox="0 0 16 16" fill="none" xmlns="http://www.w3.org/2000/svg">
<path d="M1.33203 4.66665C1.33203 4.31302 1.47251 3.97389 1.72256 3.72384C1.9726 3.47379 2.31174 3.33331 2.66536 3.33331H13.332C13.6857 3.33331 14.0248 3.47379 14.2748 3.72384C14.5249 3.97389 14.6654 4.31302 14.6654 4.66665V11.3333C14.6654 11.6869 14.5249 12.0261 14.2748 12.2761C14.0248 12.5262 13.6857 12.6666 13.332 12.6666H2.66536C2.31174 12.6666 1.9726 12.5262 1.72256 12.2761C1.47251 12.0261 1.33203 11.6869 1.33203 11.3333V4.66665Z" stroke="#4295E4" stroke-linecap="round" stroke-linejoin="round"/>
<path d="M8 10C9.10457 10 10 9.10457 10 8C10 6.89543 9.10457 6 8 6C6.89543 6 6 6.89543 6 8C6 9.10457 6.89543 10 8 10Z" stroke="#4295E4" stroke-linecap="round" stroke-linejoin="round"/>
<path d="M1.33203 5.99998C2.03928 5.99998 2.71755 5.71903 3.21765 5.21893C3.71775 4.71883 3.9987 4.04056 3.9987 3.33331" stroke="#4295E4" stroke-linecap="round" stroke-linejoin="round"/>
<path d="M12 12.6667C12 11.9594 12.281 11.2811 12.781 10.781C13.2811 10.281 13.9594 10 14.6667 10" stroke="#4295E4" stroke-linecap="round" stroke-linejoin="round"/>
</svg>
