<svg xmlns="http://www.w3.org/2000/svg" viewBox="0 0 316.31 98.62"><defs><style>.cls-1{fill:#fff;}.cls-2{fill:#f9b000;}</style></defs><g id="Слой_2" data-name="Слой 2"><g id="Слой_1-2" data-name="Слой 1"><path class="cls-1" d="M147.66,89.81V73.88h-5.92V98.62h5L161,82.55V98.62h5.92V73.88h-5Zm63.39.14V73.88h-5.91V98.62h5l14.26-16.2v16.2h5.91V73.88H225ZM192.5,83.49h-13V73.88h-5.92V98.62h5.92V88.94h13v9.68h5.92V73.88H192.5Zm-72.06-9.61L106.25,98.62h7l9.35-16.34L132,98.62h7.33L125.15,73.88Zm136.47,0L242.92,90V73.88H237V98.62h5l14.25-16.2v16.2h5.92V73.88Zm59.4-35.18H288.75v5.45h24.4Zm-27.56,9.62v5.44h18.88l3.16-5.44ZM158.05,38.7H130.49v5.45h24.4Zm-49.56-5.44h-4.84L89.47,58H85.91V70.7h5.64V63.44h29V70.7h5.65V58h-3.56ZM96.53,58l9.34-16.34L115.28,58Zm102.6-19.9c-9.89,0-14.59,6-14.59,12.84,0,7.06,4.57,12.84,14.59,12.84,4.37,0,14.45-2,14.45-12.84C213.58,43.88,209.08,38.1,199.13,38.1Zm-.07,20.23c-5.71,0-8.13-3.29-8.13-7.33,0-4.43,2.75-7.39,8.13-7.39,6.05,0,8.13,3,8.13,7.39C207.19,56.32,203.23,58.33,199.06,58.33ZM165.31,38.7,151.13,63.44h7l9.34-16.33,9.41,16.33h7.33L170,38.7ZM276.17,63.44H282V38.7h-5.85ZM265,47.58h-9V38.7h-5.91V63.44H265c4,0,8.2-2.22,8.2-8.06C273.15,47.71,267.77,47.58,265,47.58Zm-.34,10.62H256V52.68h8.67c1,0,2.56.27,2.56,2.76C267.23,57.73,266,58.2,264.67,58.2ZM130.49,48.32v5.44h18.89l3.16-5.44ZM288.75,63.44h13.37l3.1-5.44H288.75ZM239.46,48.85a4.29,4.29,0,0,0,2.9-4.43c0-5.11-4.31-5.72-7.33-5.72H219V63.44H235.3c7.46,0,9-4.1,9-7.86C244.3,51.34,241.9,49.58,239.46,48.85Zm-14.58-4.91h9.47c1.42,0,2,.74,2,2.16a2,2,0,0,1-2,2.22h-9.47ZM235.3,58.2H224.88V52.89H235.3c1.68,0,2.89.4,2.89,2.62C238.19,57.26,237.45,58.2,235.3,58.2ZM130.49,63.44h13.38L147,58H130.49Z"/><path class="cls-2" d="M45.92,44.8,21.32,26.55l-6,10.4L43.43,49.12Zm3.78-6.55L28.62,13.91l-6,10.33L47.25,42.5Zm4.52-7.82L36.65,0,30,11.49,51.1,35.83ZM6.63,52,0,63.48H35.13l3.12-5.39ZM38.18,63.48h9.35l8.21-14.22L64,63.48H73.3L55.74,33.07ZM42.1,51.41,14,39.25,8,49.59l31.63,6.08Z"/></g></g></svg>
