<svg width="40" height="19" viewBox="0 0 40 19" fill="none" xmlns="http://www.w3.org/2000/svg">
<path fill-rule="evenodd" clip-rule="evenodd" d="M4.07974 13.4416C2.37488 13.4416 1.59896 13.919 1.29296 14.9183L0.320312 18.0938H33.4557C35.1606 18.0938 35.9365 17.6163 36.2425 16.617L37.2152 13.4416H4.07974ZM8.06867 9.01147H6.42938C3.8721 9.01147 5.72996 3.49326 7.88288 3.49326H10.473C10.8882 3.49326 11.6205 3.57098 11.9811 2.52729L12.5385 0.90625H8.98667C7.06324 0.90625 5.56603 1.59464 4.4841 2.74935C2.61531 4.72569 1.98146 7.81234 2.42953 9.28904C2.85574 10.6547 4.01417 11.5541 5.82831 11.5763L7.2381 11.5874H8.97574L9.40196 10.2883C9.71888 9.36677 9.00853 9.01147 8.06867 9.01147ZM28.0242 6.72424L28.5597 4.95886H22.8441C21.8933 4.95886 21.4671 5.22533 21.3032 5.78048L20.7677 7.54587H26.4833C27.4341 7.54587 27.8603 7.27939 28.0242 6.72424ZM19.9152 9.83309L19.3797 11.5985H25.0954C26.0352 11.5985 26.4724 11.332 26.6363 10.7768L27.1718 9.01147H21.4562C20.5163 9.01147 20.0901 9.27794 19.9152 9.83309ZM29.3575 2.68274L29.893 0.917353H24.1774C23.2266 0.917353 22.8004 1.18383 22.6365 1.73898L22.101 3.50436H27.8166C28.7565 3.50436 29.1827 3.23789 29.3575 2.68274ZM20.724 3.03803C20.4835 1.39478 19.6202 0.917353 17.5219 0.917353H13.6969L11.4675 7.54587H12.8772C13.7187 7.54587 14.145 7.55697 14.593 6.33564L15.522 3.49326H16.9427C18.1557 3.49326 17.8825 5.03658 17.2705 6.53549C16.7241 7.85675 15.7733 9.02257 14.6258 9.02257H12.2543C11.3035 9.02257 10.8664 9.28904 10.6915 9.8442L10.1014 11.6096H11.839L13.5439 11.5985C15.052 11.5874 16.287 11.4763 17.7295 10.1551C19.2595 8.74499 21.03 5.1254 20.724 3.03803ZM39.9364 0.90625H36.625L33.5104 4.27047C33.1497 4.65908 32.7782 5.04768 32.4175 5.50291H32.3847L33.9366 0.90625H31.2372L27.598 11.5985H30.2974L31.4558 8.23426L32.658 7.20167L33.6087 10.2439C33.9038 11.1877 34.2098 11.5985 34.8655 11.5985H36.931L34.8109 5.62504L39.9364 0.90625Z" fill="white"/>
<path d="M5.46186 15.8066V16.7011H4.98047V14.2215H5.9323C6.20582 14.2215 6.42463 14.2894 6.5778 14.4366C6.73097 14.5838 6.8185 14.7763 6.8185 15.014C6.8185 15.2518 6.74191 15.4443 6.5778 15.5915C6.42463 15.7387 6.20582 15.8066 5.9323 15.8066H5.46186ZM5.46186 15.4216H5.9323C6.06359 15.4216 6.16206 15.3877 6.23864 15.3084C6.30429 15.2292 6.33711 15.1386 6.33711 15.0254C6.33711 14.9008 6.30429 14.8102 6.23864 14.731C6.173 14.6517 6.06359 14.6178 5.9323 14.6178H5.46186V15.4216ZM8.18608 16.1689H7.34365L7.17954 16.7011H6.69815L7.5187 14.2215H8.01103L8.83158 16.7011H8.35019L8.18608 16.1689ZM7.46399 15.7726H8.06573L7.77033 14.7989H7.75939L7.46399 15.7726ZM10.593 14.6064H9.53178V15.0933H9.94752C10.221 15.0933 10.4399 15.1726 10.604 15.3197C10.7681 15.4669 10.8447 15.6594 10.8447 15.8972C10.8447 16.135 10.7681 16.3274 10.604 16.4746C10.4399 16.6218 10.221 16.7011 9.94752 16.7011H9.02851V14.2215H10.593V14.6064ZM9.53178 15.4783V16.3161H9.94752C10.0788 16.3161 10.1882 16.2708 10.2539 16.1916C10.3195 16.1123 10.3633 16.0104 10.3633 15.8859C10.3633 15.7726 10.3304 15.6707 10.2539 15.5915C10.1773 15.5122 10.0788 15.4669 9.94752 15.4669H9.53178V15.4783ZM13.0984 15.6821C13.0984 15.9878 13.0109 16.2369 12.8249 16.4407C12.6389 16.6445 12.3982 16.7351 12.1028 16.7351C11.8074 16.7351 11.5667 16.6332 11.3807 16.4407C11.1948 16.2482 11.1072 15.9878 11.1072 15.6821V15.2405C11.1072 14.9348 11.1948 14.6857 11.3807 14.4819C11.5667 14.2781 11.8074 14.1875 12.1028 14.1875C12.3982 14.1875 12.6389 14.2894 12.8249 14.4819C13.0109 14.6744 13.1094 14.9348 13.1094 15.2405V15.6821H13.0984ZM12.617 15.2405C12.617 15.048 12.5733 14.8895 12.4748 14.7649C12.3763 14.6404 12.256 14.5838 12.0919 14.5838C11.9278 14.5838 11.7965 14.6404 11.709 14.7649C11.6214 14.8895 11.5777 15.048 11.5777 15.2405V15.6934C11.5777 15.8859 11.6214 16.0557 11.709 16.1689C11.7965 16.2935 11.9278 16.3501 12.0919 16.3501C12.256 16.3501 12.3873 16.2935 12.4748 16.1689C12.5623 16.0444 12.617 15.8859 12.617 15.6934V15.2405ZM15.0677 14.6064H14.3894V16.7011H13.908V14.6064H13.2297V14.2215H15.0568V14.6064H15.0677ZM16.4572 16.1689H15.6148L15.4507 16.7011H14.9693L15.7898 14.2215H16.2822L17.1027 16.7011H16.6213L16.4572 16.1689ZM15.7351 15.7726H16.3369L16.0415 14.7989H16.0305L15.7351 15.7726ZM18.8094 15.6141H17.8138V16.3161H18.9736V16.7011H17.3325V14.2215H18.9736V14.6064H17.8138V15.2292H18.8094V15.6141ZM19.8926 14.2215L20.5052 16.0444H20.5162L21.1289 14.2215H21.7525V16.7011H21.2711V15.9651L21.3148 14.8668H21.3039L20.6584 16.7011H20.3411L19.7066 14.8782H19.6956L19.7394 15.9651V16.7011H19.258V14.2215H19.8926ZM23.0435 16.7011V14.2215H23.8531C24.1375 14.2215 24.3563 14.2781 24.5095 14.3913C24.6627 14.5045 24.7502 14.6744 24.7502 14.9008C24.7502 15.014 24.7174 15.1159 24.6627 15.2065C24.608 15.2971 24.5205 15.365 24.4111 15.4103C24.5533 15.4443 24.6627 15.5122 24.7393 15.6141C24.8159 15.716 24.8487 15.8406 24.8487 15.9764C24.8487 16.2142 24.7721 16.3954 24.6189 16.5199C24.4658 16.6445 24.2579 16.7011 23.9734 16.7011H23.0435ZM23.5249 15.2631H23.875C24.0062 15.2631 24.1047 15.2405 24.1704 15.1839C24.236 15.1273 24.2688 15.048 24.2688 14.9461C24.2688 14.8329 24.236 14.7423 24.1594 14.697C24.0938 14.6404 23.9844 14.6178 23.8531 14.6178H23.5249V15.2631ZM23.5249 15.6028V16.3161H23.9625C24.0938 16.3161 24.1813 16.2822 24.2579 16.2255C24.3345 16.1689 24.3563 16.0784 24.3563 15.9764C24.3563 15.8519 24.3235 15.7613 24.2688 15.6934C24.2141 15.6255 24.1266 15.6028 23.9953 15.6028H23.5249ZM27.0149 15.8519C27.0259 16.1236 26.9493 16.3388 26.7852 16.4973C26.6211 16.6558 26.4023 16.7351 26.1069 16.7351C25.8224 16.7351 25.5817 16.6445 25.4067 16.452C25.2316 16.2595 25.1331 16.0104 25.1331 15.716V15.2292C25.1331 14.9235 25.2207 14.6857 25.3957 14.4932C25.5708 14.3007 25.8005 14.1988 26.085 14.1988C26.3804 14.1988 26.6101 14.2781 26.7742 14.4366C26.9383 14.5951 27.0259 14.8102 27.0149 15.082V15.0933H26.5445C26.5445 14.9348 26.5117 14.8102 26.4351 14.7197C26.3585 14.6291 26.2381 14.5951 26.085 14.5951C25.9427 14.5951 25.8224 14.6517 25.7458 14.7763C25.6583 14.9008 25.6145 15.048 25.6145 15.2405V15.7387C25.6145 15.9312 25.6583 16.0784 25.7458 16.2029C25.8333 16.3274 25.9537 16.3841 26.1069 16.3841C26.26 16.3841 26.3694 16.3388 26.4351 16.2595C26.5117 16.1803 26.5445 16.0557 26.5445 15.8859H27.0149V15.8519ZM28.8311 15.6141H27.8355V16.3161H28.9952V16.7011H27.3541V14.2215H28.9952V14.6064H27.8355V15.2292H28.8311V15.6141ZM30.8551 14.6064H29.772V16.7011H29.2906V14.2215H30.8551V14.6064ZM33.076 17.3125H32.6384V16.7011H31.1724V17.3125H30.7347L30.7019 16.3161H30.8879C30.9754 16.2369 31.052 16.1236 31.1177 15.9538C31.1833 15.7953 31.2161 15.5462 31.2271 15.2292L31.2927 14.2101H32.8463V16.3048H33.1307L33.076 17.3125ZM31.6866 15.2405C31.6756 15.4896 31.6428 15.7047 31.5991 15.8745C31.5553 16.0557 31.4897 16.2029 31.4131 16.3161H32.354V14.6064H31.7303L31.6866 15.2405ZM34.7062 16.1689H33.8638L33.6997 16.7011H33.2183L34.0388 14.2215H34.5311L35.3517 16.7011H34.8703L34.7062 16.1689ZM33.9841 15.7726H34.5859L34.2905 14.7989H34.2795L33.9841 15.7726ZM36.0519 15.8406H35.5705V14.2215H36.0519V15.8406ZM36.0519 16.7011H35.5705V16.2708H36.0519V16.7011Z" fill="#161C24"/>
</svg>
